<?xml version="1.0" encoding="UTF-8"?>
<svg width="391px" height="603px" viewBox="0 0 391 603" version="1.1" xmlns="http://www.w3.org/2000/svg" xmlns:xlink="http://www.w3.org/1999/xlink">
    <!-- Generator: Sketch 53.2 (72643) - https://sketchapp.com -->
    <title>controller</title>
    <desc>Created with Sketch.</desc>
    <g id="Page-1" stroke="none" stroke-width="1" fill="none" fill-rule="evenodd">
        <g id="controller" transform="translate(0.000000, -5.000000)">
            <g id="Group" transform="translate(71.000000, 36.000000)">
                <rect id="Rectangle" stroke="#979797" x="0.5" y="0.5" width="110" height="111"></rect>
                <rect id="Rectangle-Copy-2" stroke="#979797" x="127.5" y="0.5" width="110" height="111"></rect>
                <text id="Apples-Bananas-Orang" font-family="SourceSansPro-Regular, Source Sans Pro" font-size="18" font-weight="normal" letter-spacing="0.03888889" fill="#FFFFFF">
                    <tspan x="17" y="50">Apples</tspan>
                    <tspan x="17" y="73">Bananas</tspan>
                    <tspan x="17" y="96">Oranges</tspan>
                </text>
                <text id="Fruits" font-family="SourceSansPro-Bold, Source Sans Pro" font-size="18" font-weight="bold" letter-spacing="0.03888889" fill="#FFFFFF">
                    <tspan x="17" y="27">Fruits</tspan>
                </text>
                <text id="Vegetables" font-family="SourceSansPro-Bold, Source Sans Pro" font-size="18" font-weight="bold" letter-spacing="0.03888889" fill="#FFFFFF">
                    <tspan x="139" y="27">Vegetables</tspan>
                </text>
                <text id="Carrots,-Celery,-Pum" font-family="SourceSansPro-Regular, Source Sans Pro" font-size="18" font-weight="normal" letter-spacing="0.03888889" fill="#FFFFFF">
                    <tspan x="139" y="50">Carrots,</tspan>
                    <tspan x="139" y="73">Celery,</tspan>
                    <tspan x="139" y="96">Pumpkins</tspan>
                </text>
                <g id="Arrow" transform="translate(55.500000, 112.000000)" fill="#979797" fill-rule="nonzero">
                    <path id="Line-Copy" d="M52.1274257,32.772892 C41.642029,24.1522706 33.2490823,17.8085873 26.9575718,13.7463522 C18.6770551,8.39987682 9.58988285,4.13510166 -0.306205407,0.951965466 L-1.25817087,0.64576006 L-0.64576006,-1.25817087 L0.306205407,-0.951965466 C10.3667287,2.28406225 19.6128898,6.62345376 28.0424282,12.0661478 C34.4124323,16.1790639 42.8664031,22.5691598 53.4133419,31.2409531 L57.2774592,26.6375494 L63.5,41 L48.2765151,37.3605623 L52.1274257,32.772892 Z"></path>
                </g>
                <g id="Arrow" transform="translate(159.000000, 132.500000) scale(-1, 1) translate(-159.000000, -132.500000) translate(127.000000, 112.000000)" fill="#979797" fill-rule="nonzero">
                    <path id="Line-Copy" d="M52.1274257,32.772892 C41.642029,24.1522706 33.2490823,17.8085873 26.9575718,13.7463522 C18.6770551,8.39987682 9.58988285,4.13510166 -0.306205407,0.951965466 L-1.25817087,0.64576006 L-0.64576006,-1.25817087 L0.306205407,-0.951965466 C10.3667287,2.28406225 19.6128898,6.62345376 28.0424282,12.0661478 C34.4124323,16.1790639 42.8664031,22.5691598 53.4133419,31.2409531 L57.2774592,26.6375494 L63.5,41 L48.2765151,37.3605623 L52.1274257,32.772892 Z"></path>
                </g>
            </g>
            <g id="Pill" transform="translate(119.000000, 199.000000)">
                <rect id="Rectangle-Copy" fill="#F4EF50" fill-rule="evenodd" x="0" y="0" width="143" height="43" rx="21.5"></rect>
                <text id="&lt;ReactDrilldown-/&gt;" font-family="SourceSansPro-Regular, Source Sans Pro" font-size="18" font-weight="normal" letter-spacing="0.03888889" fill="#1613B2">
                    <tspan x="33.2355556" y="28">Controller</tspan>
                </text>
            </g>
            <g id="Pill" transform="translate(94.000000, 371.000000)">
                <rect id="Rectangle-Copy" fill="#F4EF50" fill-rule="evenodd" x="0" y="0" width="193" height="43" rx="21.5"></rect>
                <text id="&lt;ReactDrilldown-/&gt;" font-family="SourceSansPro-Regular, Source Sans Pro" font-size="18" font-weight="normal" letter-spacing="0.03888889" fill="#1613B2">
                    <tspan x="24.609" y="28">&lt;ReactDrilldown /&gt;</tspan>
                </text>
            </g>
            <g id="Pill" transform="translate(173.000000, 451.000000)">
                <rect id="Rectangle-Copy" fill="#F4EF50" fill-rule="evenodd" x="0" y="0" width="127" height="29" rx="14.5"></rect>
                <text id="&lt;ReactDrilldown-/&gt;" font-family="SourceSansPro-Regular, Source Sans Pro" font-size="18" font-weight="normal" letter-spacing="0.03888889" fill="#1613B2">
                    <tspan x="37.9673333" y="21">Apples</tspan>
                </text>
            </g>
            <g id="Pill" opacity="0.400000006" transform="translate(37.000000, 451.000000)">
                <rect id="Rectangle-Copy" fill="#F4EF50" fill-rule="evenodd" x="0" y="0" width="127" height="29" rx="14.5"></rect>
                <text id="&lt;ReactDrilldown-/&gt;" font-family="SourceSansPro-Regular, Source Sans Pro" font-size="18" font-weight="normal" letter-spacing="0.03888889" fill="#1613B2">
                    <tspan x="38.8493333" y="21">OldVal</tspan>
                </text>
            </g>
            <g id="Pill" transform="translate(189.000000, 487.000000)">
                <rect id="Rectangle-Copy" fill="#F4EF50" fill-rule="evenodd" x="0" y="0" width="127" height="29" rx="14.5"></rect>
                <text id="&lt;ReactDrilldown-/&gt;" font-family="SourceSansPro-Regular, Source Sans Pro" font-size="18" font-weight="normal" letter-spacing="0.03888889" fill="#1613B2">
                    <tspan x="30.8468889" y="21">Bananas</tspan>
                </text>
            </g>
            <g id="Pill" opacity="0.400000006" transform="translate(53.000000, 487.000000)">
                <rect id="Rectangle-Copy" fill="#F4EF50" fill-rule="evenodd" x="0" y="0" width="127" height="29" rx="14.5"></rect>
                <text id="&lt;ReactDrilldown-/&gt;" font-family="SourceSansPro-Regular, Source Sans Pro" font-size="18" font-weight="normal" letter-spacing="0.03888889" fill="#1613B2">
                    <tspan x="38.8493333" y="21">OldVal</tspan>
                </text>
            </g>
            <g id="Pill" transform="translate(205.000000, 523.000000)">
                <rect id="Rectangle-Copy" fill="#F4EF50" fill-rule="evenodd" x="0" y="0" width="127" height="29" rx="14.5"></rect>
                <text id="&lt;ReactDrilldown-/&gt;" font-family="SourceSansPro-Regular, Source Sans Pro" font-size="18" font-weight="normal" letter-spacing="0.03888889" fill="#1613B2">
                    <tspan x="32.3768889" y="21">Oranges</tspan>
                </text>
            </g>
            <text id="Choose-data-how-you" font-family="SourceSansPro-Regular, Source Sans Pro" font-size="15" font-weight="normal" letter-spacing="0.03240741" fill="#FFFFFF">
                <tspan x="110.088611" y="262">Choose data how you like</tspan>
            </text>
            <text id="Send-data-to-compone" font-family="SourceSansPro-Regular, Source Sans Pro" font-size="15" font-weight="normal" letter-spacing="0.03240741" fill="#FFFFFF">
                <tspan x="112.431018" y="329">Send data to component</tspan>
            </text>
            <text id="[Apples,-Bananas,-Or" font-family="SourceSansPro-Regular, Source Sans Pro" font-size="18" font-weight="normal" letter-spacing="0.03888889" fill="#FFFFFF">
                <tspan x="87.0384444" y="356">[Apples, Bananas, Oranges]</tspan>
            </text>
            <path id="Line" d="M188,288.4375 L188,270.011719 L188,268.011719 L192,268.011719 L192,270.011719 L192,288.4375 L202,288.4375 L190,312.4375 L178,288.4375 L188,288.4375 Z" fill="#979797" fill-rule="nonzero"></path>
            <path id="Line-Copy-3" d="M189,593.929688 L215,593.929688 L217,593.929688 L217,597.929688 L215,597.929688 L189,597.929688 L189,607.929688 L165,595.929688 L189,583.929688 L189,593.929687 Z" fill="#979797" fill-rule="nonzero"></path>
            <rect id="Rectangle" stroke="#979797" x="119.5" y="421.5" width="152" height="145"></rect>
            <rect id="Rectangle" fill="#1613B2" opacity="0.699999988" x="272" y="428" width="119" height="139"></rect>
            <rect id="Rectangle-Copy" fill="#1613B2" opacity="0.699999988" x="0" y="428" width="119" height="139"></rect>
            <text id="Data-Source" font-family="SourceSansPro-Regular, Source Sans Pro" font-size="15" font-weight="normal" letter-spacing="0.03240741" fill="#FFFFFF">
                <tspan x="152.216759" y="15">Data Source</tspan>
            </text>
        </g>
    </g>
</svg>