<?xml version="1.0" encoding="UTF-8"?>
<svg width="64px" height="64px" viewBox="0 0 64 64" version="1.1" xmlns="http://www.w3.org/2000/svg" xmlns:xlink="http://www.w3.org/1999/xlink">
    <!-- Generator: Sketch 53.2 (72643) - https://sketchapp.com -->
    <title>Artboard</title>
    <desc>Created with Sketch.</desc>
    <g id="Artboard" stroke="none" stroke-width="1" fill="none" fill-rule="evenodd">
        <rect id="Rectangle" fill="#111283" x="0" y="0" width="64" height="64" rx="5"></rect>
        <path d="M26.4443457,20 L-25.0740741,20 C-28.3919605,20 -31,17.28128 -31,14 C-31,10.71872 -28.3148444,8 -25.0740741,8 L26.3645432,8 C29.6824296,8 32.2904691,10.71872 32.2904691,14 C32.2904691,17.28128 29.6824296,20 26.4448198,20 L26.4443457,20 Z" id="Path" fill="#F7F07F" fill-rule="nonzero"></path>
        <path d="M13.9259259,26 L49.5620741,26 C52.8799605,26 55.488,28.71872 55.488,32 C55.488,35.28128 52.8799605,38 49.5620741,38 L13.9259259,38 C10.6080395,38 8,35.28128 8,32 C8,28.71872 10.688237,26 13.9259259,26 Z" id="Path" fill="#F7F07F" fill-rule="nonzero"></path>
        <path d="M37.9259259,44 L89.3645432,44 C92.6824296,44 95.2904691,46.71872 95.2904691,50 C95.2904691,53.28128 92.6053136,56 89.3645432,56 L37.9259259,56 C34.6080395,56 32,53.28128 32,50 C32,46.71872 34.688237,44 37.9259259,44 Z" id="Path-Copy" fill="#F7F07F" fill-rule="nonzero"></path>
    </g>
</svg>